<svg version="1" xmlns="http://www.w3.org/2000/svg" width="2133.333" height="2133.333" viewBox="0 0 1600.000000 1600.000000"><path d="M635 3.1c-74.2 2.2-148.7 16.1-211.8 39.5-46.2 17.1-95.6 44.6-131.2 73-17.4 13.9-48.7 45.2-62.4 62.4-31.2 39.2-55.6 84.2-71.6 132-20.2 60.4-29 122.6-27.7 194.2.6 30.7 1.6 41.8 6.3 65.3 10.6 53 34.4 105.2 66.9 147 45.8 58.8 106.3 103.3 179.5 132.2 54.7 21.6 94.4 31 173.5 40.8 209.4 26 359.1 62.4 420 102.2 49.4 32.3 93.4 100.7 107.5 167.3 6 28.2 2.3 71.9-9 106.3-7.6 23-23.8 52.7-38.7 70.9-8.2 10-35.9 36.5-44.9 43-69.5 49.6-161.9 74.8-274.5 74.8-54.3 0-105.7-7.8-168.4-25.5-91.8-25.9-191-72.5-286.3-134.4-43.9-28.5-91.6-63.7-128.6-94.9-5.9-5.1-11.5-9.2-12.2-9.2-.9 0-1.4 1.1-1.4 3.2.1 17.7 2.3 101.6 3.5 128.3 2.3 52.9 4.4 107.7 5 133.5.3 12.9.8 24.9 1.1 26.7.4 2.9 1.3 3.6 8.7 7.1 70.8 33.9 209.7 72.1 349.7 96.1 45.7 7.9 72.5 10.7 110 11.6 82.2 2 157.9-9.1 233-34.2 34.5-11.5 80.3-32.6 109.7-50.5 66.2-40.3 123.3-97 160.5-159.6 8.9-15.1 25.5-47.9 31.1-61.7 16.1-39.3 28.3-88.6 32.1-129.5 4-43.7 3-90.2-2.9-124.5-13.7-81-41.9-144.7-82.8-187.2-20.9-21.7-33.5-30.5-68.7-48.2-94.1-47.1-193-72.6-402.5-103.5-74.6-11.1-110.7-17.8-149.2-27.7-119.1-30.7-193.6-82.7-227.8-158.8-17.2-38.5-22.9-68.1-22.9-120.1 0-47 4.2-67.9 20.4-101.8 11.7-24.3 23.7-40.9 43.1-59.7 29.2-28.3 63.8-48.2 111.4-64 48.1-16 89.7-22.5 163-25.4 111.5-4.4 182.1.1 244 15.5 31 7.8 58.1 18.2 92 35.4 53 26.9 96.9 60 169.5 127.9l20.5 19.2.3-35.3c.2-19.4 0-75-.4-123.5l-.6-88.3-5.7-2.6c-10-4.6-35.7-15.2-49.8-20.5-90.5-33.9-183.6-55-274.8-62.4-15.3-1.3-78.6-3.9-80.5-3.3-.3.1-11.5.5-25 .9zM1394.3 3c-9.9 1.3-26 5.5-36.7 9.6-23.4 9-43.8 22.6-61.2 40.6-20 20.8-33.3 44.9-41.6 75.3l-3.2 12V167c-.1 28.9.3 31.9 6.6 52 3.8 12.1 14.1 33.2 21 43.2 26.1 37.6 63.7 61.5 110.6 70.4 11.3 2.1 48.5 1.4 60.2-1.1 21.7-4.8 46-15.5 64-28.3 12.2-8.6 29.7-26.1 38-37.9 22.4-31.9 32.4-66.3 30.7-105.4-3.4-75.7-57.4-138.9-132.5-155-11.1-2.3-43.4-3.4-55.9-1.9z"/></svg>